<svg width="16" height="16" viewBox="0 0 16 16" fill="none" xmlns="http://www.w3.org/2000/svg">
<g clip-path="url(#clip0_496_103)">
<path d="M14.9271 8.63449C14.9269 8.63467 14.9268 8.63487 14.9266 8.63504L11.9362 11.6109C11.7122 11.8339 11.3499 11.833 11.1269 11.609C10.9039 11.385 10.9048 11.0226 11.1288 10.7997L13.1365 8.80169L1.01663 8.80169C0.70055 8.80169 0.444336 8.54547 0.444336 8.2294C0.444336 7.91332 0.70055 7.65711 1.01663 7.65711L13.1365 7.65711L11.1288 5.65913C10.9048 5.43617 10.904 5.07382 11.1269 4.8498C11.3499 4.62572 11.7123 4.62495 11.9363 4.84786L14.9266 7.82376C14.9268 7.82393 14.9269 7.82413 14.9271 7.8243C15.1513 8.04801 15.1505 8.41153 14.9271 8.63449Z" fill="#212121"/>
</g>
<defs>
<clipPath id="clip0_496_103">
<rect width="14.6506" height="14.6506" fill="white" transform="matrix(1 8.74228e-08 8.74228e-08 -1 0.444336 15.5547)"/>
</clipPath>
</defs>
</svg>
